<?xml version="1.0" standalone="no"?>
<!DOCTYPE svg PUBLIC "-//W3C//DTD SVG 20010904//EN"
 "http://www.w3.org/TR/2001/REC-SVG-20010904/DTD/svg10.dtd">
<svg version="1.0" xmlns="http://www.w3.org/2000/svg"
 width="996.000000pt" height="996.000000pt" viewBox="0 0 996.000000 996.000000"
 preserveAspectRatio="xMidYMid meet">

<g transform="translate(0.000000,996.000000) scale(0.100000,-0.100000)"
fill="#000000" stroke="none">
<path d="M310 7244 c0 -3 13 -24 29 -47 53 -78 94 -184 115 -297 14 -73 16
-296 16 -1919 0 -1970 1 -1908 -50 -2061 -12 -36 -39 -98 -60 -137 l-37 -73
736 0 735 0 -71 34 c-121 58 -204 157 -268 320 -58 148 -56 60 -53 2026 l3
1805 28 90 c16 50 48 129 72 178 l44 87 -619 0 c-341 0 -620 -3 -620 -6z"/>
<path d="M5309 7218 c65 -99 114 -237 131 -369 6 -54 10 -505 10 -1260 0 -683
4 -1230 10 -1305 33 -432 100 -680 243 -895 293 -442 751 -653 1467 -675 172
-6 210 -4 325 16 321 54 584 189 814 417 63 62 111 116 109 119 -3 3 -36 -15
-73 -40 -211 -141 -441 -209 -715 -209 -417 -1 -746 152 -990 458 -96 121
-174 296 -220 495 -56 238 -53 165 -57 1525 -3 879 -1 1286 7 1345 16 122 45
222 96 323 l43 87 -610 0 -611 0 21 -32z"/>
<path d="M8537 7142 c101 -202 93 4 93 -2339 l0 -2043 536 0 536 0 -16 25 c-9
14 -22 35 -30 47 -27 42 -76 175 -91 248 -22 103 -23 3687 -1 3820 21 126 65
247 118 323 l19 27 -609 0 -609 0 54 -108z"/>
<path d="M4075 7168 c48 -77 76 -152 100 -263 22 -106 22 -3710 0 -3838 -17
-96 -61 -227 -100 -292 -14 -24 -25 -46 -25 -49 0 -3 274 -6 609 -6 l609 0
-44 67 c-44 67 -50 82 -82 213 -15 59 -17 250 -19 1935 -3 1665 -2 1879 12
1954 19 98 62 222 105 297 l30 54 -619 0 -620 0 44 -72z"/>
<path d="M3336 3702 c-11 -72 -57 -216 -103 -325 -107 -255 -291 -497 -489
-645 l-29 -21 643 -1 644 0 -49 36 c-262 196 -493 574 -573 937 -15 66 -35 74
-44 19z"/>
</g>
</svg>
