<?xml version="1.0" standalone="no"?>
<!DOCTYPE svg PUBLIC "-//W3C//DTD SVG 20010904//EN"
 "http://www.w3.org/TR/2001/REC-SVG-20010904/DTD/svg10.dtd">
<svg version="1.0" xmlns="http://www.w3.org/2000/svg"
 width="996.000000pt" height="996.000000pt" viewBox="0 0 996.000000 996.000000"
 preserveAspectRatio="xMidYMid meet">

<g transform="translate(0.000000,996.000000) scale(0.100000,-0.100000)"
fill="#000000" stroke="none">
<path d="M0 4980 l0 -4980 4980 0 4980 0 0 4980 0 4980 -4980 0 -4980 0 0
-4980z m1505 2183 c-24 -49 -56 -128 -72 -178 l-28 -90 -3 -1805 c-3 -1966 -5
-1878 53 -2026 64 -163 147 -262 268 -320 l71 -34 -735 0 -736 0 37 73 c21 39
48 101 60 137 51 153 50 91 50 2061 0 1623 -2 1846 -16 1919 -21 113 -62 219
-115 297 -16 23 -29 44 -29 47 0 3 279 6 620 6 l619 0 -44 -87z m4966 10 c-52
-103 -79 -187 -97 -307 -13 -86 -14 -277 -11 -1365 4 -1367 1 -1293 57 -1531
46 -199 124 -374 220 -495 243 -306 574 -459 990 -458 274 0 504 68 715 209
37 25 70 43 73 40 2 -3 -46 -57 -109 -119 -230 -228 -493 -363 -814 -417 -115
-20 -153 -22 -325 -16 -589 18 -993 161 -1289 457 -270 269 -378 553 -421
1108 -6 82 -10 595 -10 1311 0 755 -4 1205 -10 1259 -17 132 -66 270 -131 369
l-21 32 611 0 611 0 -39 -77z m3211 50 c-53 -76 -97 -197 -118 -323 -21 -129
-21 -3717 0 -3817 22 -101 69 -218 117 -290 l21 -33 -536 0 -536 0 0 2043 c0
2343 8 2137 -93 2339 l-54 108 609 0 609 0 -19 -27z m-4442 -37 c-43 -75 -86
-199 -105 -297 -14 -75 -15 -289 -12 -1954 2 -1685 4 -1876 19 -1935 32 -131
38 -146 82 -213 l44 -67 -614 0 -614 0 30 46 c40 64 87 199 105 301 22 128 22
3732 0 3838 -24 111 -52 186 -100 263 l-44 72 620 0 619 0 -30 -54z m-1861
-3503 c35 -159 120 -371 207 -516 93 -154 246 -330 367 -421 l49 -36 -644 0
-643 1 29 21 c198 148 382 390 489 645 46 109 92 253 103 325 9 55 29 47 43
-19z"/>
</g>
</svg>
